#N canvas 425 206 1366 677 12;
#X msg 215 171 1;
#X msg 147 172 0;
#X obj 172 484 noteout 1;
#X obj 174 305 bng 19 250 50 0 empty empty empty 0 -10 0 12 #fcfcfc #000000 #000000;
#X obj 172 419 makenote 200 500;
#X msg 172 364 80;
#X msg 366 172 1;
#X msg 299 173 0;
#X obj 324 485 noteout 1;
#X obj 326 306 bng 19 250 50 0 empty empty empty 0 -10 0 12 #fcfcfc #000000 #000000;
#X obj 324 420 makenote 200 500;
#X msg 324 365 60;
#X obj 244 115 t b b;
#X obj 255 51 bng 19 250 50 0 empty empty empty 0 -10 0 12 #fcfcfc #000000 #000000;
#X obj 174 261 metro 55;
#X obj 326 262 metro 60;
#X obj 638 306 bng 19 250 50 0 empty empty empty 0 -10 0 12 #fcfcfc #000000 #000000;
#X obj 804 314 bng 19 250 50 0 empty empty empty 0 -10 0 12 #fcfcfc #000000 #000000;
#X obj 931 310 bng 19 250 50 0 empty empty empty 0 -10 0 12 #fcfcfc #000000 #000000;
#X obj 1087 309 bng 19 250 50 0 empty empty empty 0 -10 0 12 #fcfcfc #000000 #000000;
#X obj 679 259 metro 150;
#X obj 835 260 metro 300;
#X obj 968 263 metro 450;
#X obj 1120 264 metro 750;
#X obj 893 103 t b b b b;
#X obj 893 46 bng 19 250 50 0 empty empty empty 0 -10 0 12 #fcfcfc #000000 #000000;
#X obj 679 353 spigot;
#X msg 679 400 36;
#X obj 679 505 noteout 1;
#X obj 679 450 makenote 200 500;
#X msg 736 322 0;
#X msg 736 361 1;
#X obj 835 351 spigot;
#X obj 835 503 noteout 1;
#X obj 835 448 makenote 200 500;
#X msg 892 320 0;
#X msg 892 359 1;
#X obj 968 351 spigot;
#X obj 968 503 noteout 1;
#X obj 968 448 makenote 200 500;
#X msg 1025 320 0;
#X msg 1025 359 1;
#X obj 1121 351 spigot;
#X obj 1121 503 noteout 1;
#X obj 1121 448 makenote 200 500;
#X msg 1178 320 0;
#X msg 1178 359 1;
#X msg 835 398 40;
#X msg 968 398 43;
#X msg 1121 398 47;
#X connect 0 0 14 0;
#X connect 1 0 14 0;
#X connect 3 0 5 0;
#X connect 4 0 2 0;
#X connect 4 1 2 1;
#X connect 5 0 4 0;
#X connect 6 0 15 0;
#X connect 7 0 15 0;
#X connect 9 0 11 0;
#X connect 10 0 8 0;
#X connect 10 1 8 1;
#X connect 11 0 10 0;
#X connect 12 0 0 0;
#X connect 12 1 6 0;
#X connect 13 0 12 0;
#X connect 14 0 3 0;
#X connect 15 0 9 0;
#X connect 20 0 16 0;
#X connect 20 0 26 0;
#X connect 21 0 17 0;
#X connect 21 0 32 0;
#X connect 22 0 18 0;
#X connect 22 0 37 0;
#X connect 23 0 19 0;
#X connect 23 0 42 0;
#X connect 24 0 20 0;
#X connect 24 1 21 0;
#X connect 24 2 22 0;
#X connect 24 3 23 0;
#X connect 25 0 24 0;
#X connect 26 0 27 0;
#X connect 27 0 29 0;
#X connect 29 0 28 0;
#X connect 29 1 28 1;
#X connect 30 0 26 1;
#X connect 31 0 26 1;
#X connect 32 0 47 0;
#X connect 34 0 33 0;
#X connect 34 1 33 1;
#X connect 35 0 32 1;
#X connect 36 0 32 1;
#X connect 37 0 48 0;
#X connect 39 0 38 0;
#X connect 39 1 38 1;
#X connect 40 0 37 1;
#X connect 41 0 37 1;
#X connect 42 0 49 0;
#X connect 44 0 43 0;
#X connect 44 1 43 1;
#X connect 45 0 42 1;
#X connect 46 0 42 1;
#X connect 47 0 34 0;
#X connect 48 0 39 0;
#X connect 49 0 44 0;
